# xmcd
#
# Track frame offsets:
#	150
#	18682
#	33500
#	50922
#	71330
#	89563
#	110926
#	127253
#
# Disc length: 2387 seconds
#
# Revision: 1
# Processed by: cddbd v1.5.2PL0 Copyright (c) Steve Scherf et al.
# Submitted via: audiograbber 1.83.01
#
DISCID=7d095108
DTITLE=Hayward Williams - Cotton Bell
DYEAR=2010
DGENRE=Americana
TTITLE0=Cotton Bell
TTITLE1=In Doorways
TTITLE2=Mockingbird
TTITLE3=This Ain't My Bed
TTITLE4=Everynight
TTITLE5=I Will Understand
TTITLE6=New Years Eve
TTITLE7=Great Plains
EXTD=
EXTT0=
EXTT1=
EXTT2=
EXTT3=
EXTT4=
EXTT5=
EXTT6=
EXTT7=
PLAYORDER=
